<svg width="326" height="235" viewBox="0 0 326 235" fill="none" xmlns="http://www.w3.org/2000/svg">
<g id="Traits">
<g id="Trait 4" opacity="0.5" filter="url(#filter0_di_3_4805)">
<g id="Rectangle 46" filter="url(#filter1_bi_3_4805)">
<rect x="4" y="183" width="318" height="44" rx="15" fill="url(#paint0_linear_3_4805)" fill-opacity="0.25"/>
<rect x="5.5" y="184.5" width="315" height="41" rx="13.5" stroke="url(#paint1_linear_3_4805)" stroke-width="3"/>
</g>
<path id="Targeting value 2" d="M22.45 214.175C21.3 214.175 20.2667 213.975 19.35 213.575C18.45 213.158 17.7417 212.592 17.225 211.875C16.7083 211.142 16.4417 210.3 16.425 209.35H18.85C18.9333 210.167 19.2667 210.858 19.85 211.425C20.45 211.975 21.3167 212.25 22.45 212.25C23.5333 212.25 24.3833 211.983 25 211.45C25.6333 210.9 25.95 210.2 25.95 209.35C25.95 208.683 25.7667 208.142 25.4 207.725C25.0333 207.308 24.575 206.992 24.025 206.775C23.475 206.558 22.7333 206.325 21.8 206.075C20.65 205.775 19.725 205.475 19.025 205.175C18.3417 204.875 17.75 204.408 17.25 203.775C16.7667 203.125 16.525 202.258 16.525 201.175C16.525 200.225 16.7667 199.383 17.25 198.65C17.7333 197.917 18.4083 197.35 19.275 196.95C20.1583 196.55 21.1667 196.35 22.3 196.35C23.9333 196.35 25.2667 196.758 26.3 197.575C27.35 198.392 27.9417 199.475 28.075 200.825H25.575C25.4917 200.158 25.1417 199.575 24.525 199.075C23.9083 198.558 23.0917 198.3 22.075 198.3C21.125 198.3 20.35 198.55 19.75 199.05C19.15 199.533 18.85 200.217 18.85 201.1C18.85 201.733 19.025 202.25 19.375 202.65C19.7417 203.05 20.1833 203.358 20.7 203.575C21.2333 203.775 21.975 204.008 22.925 204.275C24.075 204.592 25 204.908 25.7 205.225C26.4 205.525 27 206 27.5 206.65C28 207.283 28.25 208.15 28.25 209.25C28.25 210.1 28.025 210.9 27.575 211.65C27.125 212.4 26.4583 213.008 25.575 213.475C24.6917 213.942 23.65 214.175 22.45 214.175ZM45.0229 196.575V214H42.7479V206.1H33.8729V214H31.5979V196.575H33.8729V204.225H42.7479V196.575H45.0229ZM56.8074 214.175C55.1908 214.175 53.7158 213.8 52.3824 213.05C51.0491 212.283 49.9908 211.225 49.2074 209.875C48.4408 208.508 48.0574 206.975 48.0574 205.275C48.0574 203.575 48.4408 202.05 49.2074 200.7C49.9908 199.333 51.0491 198.275 52.3824 197.525C53.7158 196.758 55.1908 196.375 56.8074 196.375C58.4408 196.375 59.9241 196.758 61.2574 197.525C62.5908 198.275 63.6408 199.325 64.4074 200.675C65.1741 202.025 65.5574 203.558 65.5574 205.275C65.5574 206.992 65.1741 208.525 64.4074 209.875C63.6408 211.225 62.5908 212.283 61.2574 213.05C59.9241 213.8 58.4408 214.175 56.8074 214.175ZM56.8074 212.2C58.0241 212.2 59.1158 211.917 60.0824 211.35C61.0658 210.783 61.8324 209.975 62.3824 208.925C62.9491 207.875 63.2324 206.658 63.2324 205.275C63.2324 203.875 62.9491 202.658 62.3824 201.625C61.8324 200.575 61.0741 199.767 60.1074 199.2C59.1408 198.633 58.0408 198.35 56.8074 198.35C55.5741 198.35 54.4741 198.633 53.5074 199.2C52.5408 199.767 51.7741 200.575 51.2074 201.625C50.6574 202.658 50.3824 203.875 50.3824 205.275C50.3824 206.658 50.6574 207.875 51.2074 208.925C51.7741 209.975 52.5408 210.783 53.5074 211.35C54.4908 211.917 55.5908 212.2 56.8074 212.2ZM70.8357 198.425V204.25H77.1857V206.125H70.8357V212.125H77.9357V214H68.5607V196.55H77.9357V198.425H70.8357ZM93.5682 214.175C92.4182 214.175 91.3848 213.975 90.4682 213.575C89.5682 213.158 88.8598 212.592 88.3432 211.875C87.8265 211.142 87.5598 210.3 87.5432 209.35H89.9682C90.0515 210.167 90.3848 210.858 90.9682 211.425C91.5682 211.975 92.4348 212.25 93.5682 212.25C94.6515 212.25 95.5015 211.983 96.1182 211.45C96.7515 210.9 97.0682 210.2 97.0682 209.35C97.0682 208.683 96.8848 208.142 96.5182 207.725C96.1515 207.308 95.6932 206.992 95.1432 206.775C94.5932 206.558 93.8515 206.325 92.9182 206.075C91.7682 205.775 90.8432 205.475 90.1432 205.175C89.4598 204.875 88.8682 204.408 88.3682 203.775C87.8848 203.125 87.6432 202.258 87.6432 201.175C87.6432 200.225 87.8848 199.383 88.3682 198.65C88.8515 197.917 89.5265 197.35 90.3932 196.95C91.2765 196.55 92.2848 196.35 93.4182 196.35C95.0515 196.35 96.3848 196.758 97.4182 197.575C98.4682 198.392 99.0598 199.475 99.1932 200.825H96.6932C96.6098 200.158 96.2598 199.575 95.6432 199.075C95.0265 198.558 94.2098 198.3 93.1932 198.3C92.2432 198.3 91.4682 198.55 90.8682 199.05C90.2682 199.533 89.9682 200.217 89.9682 201.1C89.9682 201.733 90.1432 202.25 90.4932 202.65C90.8598 203.05 91.3015 203.358 91.8182 203.575C92.3515 203.775 93.0932 204.008 94.0432 204.275C95.1932 204.592 96.1182 204.908 96.8182 205.225C97.5182 205.525 98.1182 206 98.6182 206.65C99.1182 207.283 99.3682 208.15 99.3682 209.25C99.3682 210.1 99.1432 210.9 98.6932 211.65C98.2432 212.4 97.5765 213.008 96.6932 213.475C95.8098 213.942 94.7682 214.175 93.5682 214.175ZM104.991 196.575V214H102.716V196.575H104.991ZM110.793 212.025H119.293V214H108.093V212.2L116.543 198.55H108.193V196.575H119.243V198.375L110.793 212.025ZM124.669 198.425V204.25H131.019V206.125H124.669V212.125H131.769V214H122.394V196.55H131.769V198.425H124.669Z" fill="url(#paint2_linear_3_4805)" fill-opacity="0.25"/>
<g id="tvorba ukolu - target - static 2" clip-path="url(#clip0_3_4805)">
<path id="Vector" d="M310 211.859C310 213.251 308.871 214.38 307.478 214.38H283.522C282.129 214.38 281 213.251 281 211.859C281 210.466 282.129 209.337 283.522 209.337H307.478C308.871 209.337 310 210.466 310 211.859Z" fill="#DBD8D2"/>
<path id="Vector_2" d="M290.772 199.25C290.772 200.469 289.784 201.457 288.565 201.457C287.347 201.457 286.359 200.469 286.359 199.25C286.359 198.031 287.347 197.043 288.565 197.043C289.784 197.043 290.772 198.031 290.772 199.25ZM302.435 197.043C301.216 197.043 300.228 198.031 300.228 199.25C300.228 200.469 301.216 201.457 302.435 201.457C303.653 201.457 304.641 200.469 304.641 199.25C304.641 198.031 303.653 197.043 302.435 197.043Z" fill="#B2D1D8"/>
<path id="Vector_3" d="M292.348 207.032V211.051H284.783V207.032C284.783 204.943 286.476 203.249 288.565 203.249C290.654 203.249 292.348 204.943 292.348 207.032ZM288.25 197.674C287.554 197.674 286.989 198.238 286.989 198.935C286.989 199.631 287.554 200.196 288.25 200.196C288.946 200.196 289.511 199.631 289.511 198.935C289.511 198.238 288.946 197.674 288.25 197.674ZM302.435 203.249C300.346 203.249 298.652 204.943 298.652 207.032V211.051H306.217V207.032C306.217 204.943 304.524 203.249 302.435 203.249ZM302.12 197.674C301.423 197.674 300.859 198.238 300.859 198.935C300.859 199.631 301.423 200.196 302.12 200.196C302.816 200.196 303.38 199.631 303.38 198.935C303.38 198.238 302.816 197.674 302.12 197.674Z" fill="#CFDFE2"/>
<path id="Vector_4" d="M292.306 206.464C292.333 206.65 292.348 206.839 292.348 207.032V211.544H284.783V208.23C285.303 209.027 286.203 209.554 287.226 209.554C288.836 209.554 290.141 208.248 290.141 206.638C290.141 205.298 292.106 205.139 292.306 206.464ZM304.011 206.638C304.011 208.248 302.705 209.554 301.095 209.554C300.072 209.554 299.173 209.027 298.652 208.23V211.543H306.217V207.032C306.217 206.839 306.203 206.649 306.175 206.464C305.976 205.139 304.011 205.298 304.011 206.638Z" fill="#B2D1D8"/>
<path id="Vector_5" d="M307.321 211.859C307.321 212.12 307.109 212.332 306.848 212.332H284.152C283.891 212.332 283.679 212.12 283.679 211.859C283.679 211.598 283.891 211.386 284.152 211.386H306.848C307.109 211.386 307.321 211.598 307.321 211.859Z" fill="#A5A5A5"/>
<path id="Vector_6" d="M298.828 195.328C298.828 197.165 297.338 198.655 295.5 198.655C293.662 198.655 292.172 197.165 292.172 195.328C292.172 193.49 293.662 192 295.5 192C297.338 192 298.828 193.49 298.828 195.328Z" fill="#A384E2"/>
<path id="Vector_7" d="M301.204 205.915V212.322H289.796V205.915C289.796 202.956 292.195 200.557 295.154 200.557H295.846C298.805 200.557 301.204 202.956 301.204 205.915ZM295.025 192.951C293.974 192.951 293.123 193.802 293.123 194.852C293.123 195.902 293.975 196.754 295.025 196.754C296.075 196.754 296.926 195.902 296.926 194.852C296.926 193.802 296.075 192.951 295.025 192.951Z" fill="#B69CF7"/>
<path id="Vector_8" d="M301.141 205.405C301.183 205.684 301.204 205.97 301.204 206.261V212.322H289.796V208.068C290.58 209.27 291.937 210.064 293.48 210.064C295.908 210.064 297.877 208.095 297.877 205.667C297.877 203.646 300.84 203.406 301.141 205.405Z" fill="#A384E2"/>
<path id="Vector_9" d="M302.12 211.859C302.12 215.515 299.156 218.478 295.5 218.478C291.844 218.478 288.88 215.515 288.88 211.859C288.88 208.203 291.844 205.239 295.5 205.239C299.156 205.239 302.12 208.203 302.12 211.859Z" fill="#FC8059"/>
<path id="Vector_10" d="M299.913 211.859C299.913 214.296 297.937 216.272 295.5 216.272C293.063 216.272 291.087 214.296 291.087 211.859C291.087 209.421 293.063 207.446 295.5 207.446C297.937 207.446 299.913 209.421 299.913 211.859Z" fill="white"/>
<path id="Vector_11" d="M296.761 211.859C296.761 212.555 296.196 213.12 295.5 213.12C294.804 213.12 294.239 212.555 294.239 211.859C294.239 211.162 294.804 210.598 295.5 210.598C296.196 210.598 296.761 211.162 296.761 211.859ZM295.973 220.527V214.853C295.973 214.592 295.761 214.38 295.5 214.38C295.239 214.38 295.027 214.592 295.027 214.853V220.527C295.027 220.788 295.239 221 295.5 221C295.761 221 295.973 220.788 295.973 220.527ZM295.973 208.864V203.19C295.973 202.929 295.761 202.717 295.5 202.717C295.239 202.717 295.027 202.929 295.027 203.19V208.864C295.027 209.125 295.239 209.337 295.5 209.337C295.761 209.337 295.973 209.125 295.973 208.864ZM304.641 211.859C304.641 211.598 304.43 211.386 304.168 211.386H298.495C298.233 211.386 298.022 211.598 298.022 211.859C298.022 212.12 298.233 212.332 298.495 212.332H304.168C304.43 212.332 304.641 212.12 304.641 211.859ZM292.978 211.859C292.978 211.598 292.767 211.386 292.505 211.386H286.832C286.57 211.386 286.359 211.598 286.359 211.859C286.359 212.12 286.57 212.332 286.832 212.332H292.505C292.767 212.332 292.978 212.12 292.978 211.859Z" fill="#FC8059"/>
</g>
</g>
<g id="Trait 3" opacity="0.5" filter="url(#filter2_di_3_4805)">
<g id="Rectangle 45" filter="url(#filter3_bi_3_4805)">
<rect x="4" y="123" width="318" height="44" rx="15" fill="url(#paint3_linear_3_4805)" fill-opacity="0.25"/>
<rect x="5.5" y="124.5" width="315" height="41" rx="13.5" stroke="url(#paint4_linear_3_4805)" stroke-width="3"/>
</g>
<g id="eye - yes 3" clip-path="url(#clip1_3_4805)">
<path id="Vector_12" d="M316.874 143.499C313.339 152.179 305.101 158.265 295.5 158.265C285.899 158.265 277.661 152.179 274.126 143.499C277.661 134.821 285.901 128.736 295.5 128.736C305.099 128.736 313.339 134.821 316.874 143.499Z" fill="white"/>
<path id="Vector_13" d="M295.5 151.336C299.643 151.336 303.002 147.828 303.002 143.5C303.002 139.173 299.643 135.665 295.5 135.665C291.357 135.665 287.998 139.173 287.998 143.5C287.998 147.828 291.357 151.336 295.5 151.336Z" fill="#80D0E1"/>
<g id="Group">
<path id="Vector_14" d="M317.91 143.039C314.081 133.635 305.284 127.559 295.5 127.559C285.716 127.559 276.919 133.635 273.09 143.039C272.97 143.333 272.97 143.665 273.09 143.96C276.919 153.364 285.716 159.441 295.5 159.441C305.285 159.441 314.081 153.364 317.91 143.96C318.03 143.665 318.03 143.333 317.91 143.039ZM295.5 157.088C286.782 157.088 278.928 151.771 275.356 143.499C278.928 135.229 286.782 129.912 295.5 129.912C304.218 129.912 312.072 135.229 315.644 143.499C312.072 151.771 304.218 157.088 295.5 157.088Z" fill="#58595B"/>
<path id="Vector_15" d="M295.5 134.488C290.742 134.488 286.871 138.531 286.871 143.5C286.871 148.469 290.742 152.512 295.5 152.512C300.258 152.512 304.129 148.469 304.129 143.5C304.129 138.531 300.258 134.488 295.5 134.488ZM295.5 150.159C291.985 150.159 289.124 147.172 289.124 143.5C289.124 139.828 291.985 136.841 295.5 136.841C299.015 136.841 301.876 139.828 301.876 143.5C301.876 147.172 299.015 150.159 295.5 150.159Z" fill="#58595B"/>
<path id="Vector_16" d="M295.5 138.715C292.974 138.715 290.919 140.862 290.919 143.5C290.919 144.15 291.423 144.677 292.045 144.677C292.668 144.677 293.172 144.15 293.172 143.5C293.172 142.159 294.216 141.068 295.5 141.068C296.122 141.068 296.627 140.542 296.627 139.892C296.627 139.242 296.122 138.715 295.5 138.715Z" fill="#58595B"/>
</g>
</g>
<path id="Targeting value 1" d="M27.225 150.125H19.625L18.225 154H15.825L22.125 136.675H24.75L31.025 154H28.625L27.225 150.125ZM26.575 148.275L23.425 139.475L20.275 148.275H26.575ZM46.9707 141.625C46.4874 140.608 45.7874 139.825 44.8707 139.275C43.954 138.708 42.8874 138.425 41.6707 138.425C40.454 138.425 39.354 138.708 38.3707 139.275C37.404 139.825 36.6374 140.625 36.0707 141.675C35.5207 142.708 35.2457 143.908 35.2457 145.275C35.2457 146.642 35.5207 147.842 36.0707 148.875C36.6374 149.908 37.404 150.708 38.3707 151.275C39.354 151.825 40.454 152.1 41.6707 152.1C43.3707 152.1 44.7707 151.592 45.8707 150.575C46.9707 149.558 47.6124 148.183 47.7957 146.45H40.8457V144.6H50.2207V146.35C50.0874 147.783 49.6374 149.1 48.8707 150.3C48.104 151.483 47.0957 152.425 45.8457 153.125C44.5957 153.808 43.204 154.15 41.6707 154.15C40.054 154.15 38.579 153.775 37.2457 153.025C35.9124 152.258 34.854 151.2 34.0707 149.85C33.304 148.5 32.9207 146.975 32.9207 145.275C32.9207 143.575 33.304 142.05 34.0707 140.7C34.854 139.333 35.9124 138.275 37.2457 137.525C38.579 136.758 40.054 136.375 41.6707 136.375C43.5207 136.375 45.154 136.833 46.5707 137.75C48.004 138.667 49.0457 139.958 49.6957 141.625H46.9707ZM55.5037 138.425V144.25H61.8537V146.125H55.5037V152.125H62.6037V154H53.2287V136.55H62.6037V138.425H55.5037Z" fill="url(#paint5_linear_3_4805)" fill-opacity="0.25"/>
</g>
<g id="Trait 2" opacity="0.5" filter="url(#filter4_di_3_4805)">
<g id="Rectangle 46_2" filter="url(#filter5_bi_3_4805)">
<rect x="4" y="63" width="318" height="44" rx="15" fill="url(#paint6_linear_3_4805)" fill-opacity="0.25"/>
<rect x="5.5" y="64.5" width="315" height="41" rx="13.5" stroke="url(#paint7_linear_3_4805)" stroke-width="3"/>
</g>
<g id="eye - private 1" clip-path="url(#clip2_3_4805)">
<path id="Vector_17" d="M312.074 85.4994C309.168 92.3326 302.394 97.1231 294.5 97.1231C286.606 97.1231 279.832 92.3326 276.926 85.4994C279.832 78.6675 286.607 73.877 294.5 73.877C302.393 73.877 309.168 78.6675 312.074 85.4994Z" fill="white"/>
<path id="Vector_18" d="M294.5 91.6684C297.907 91.6684 300.668 88.9067 300.668 85.5C300.668 82.0933 297.907 79.3317 294.5 79.3317C291.093 79.3317 288.332 82.0933 288.332 85.5C288.332 88.9067 291.093 91.6684 294.5 91.6684Z" fill="white"/>
<g id="Group_2">
<path id="Vector_19" d="M312.926 85.1368C309.778 77.7341 302.545 72.9506 294.5 72.9506C286.455 72.9506 279.223 77.734 276.074 85.1368C275.975 85.3685 275.975 85.6302 276.074 85.8619C279.222 93.2655 286.455 98.0493 294.5 98.0493C302.545 98.0493 309.778 93.2655 312.926 85.8619C313.025 85.6302 313.025 85.3685 312.926 85.1368ZM294.5 96.1969C287.332 96.1969 280.874 92.0112 277.937 85.4995C280.874 78.9885 287.332 74.8032 294.5 74.8032C301.668 74.8032 308.126 78.9885 311.063 85.4993C308.126 92.011 301.668 96.1969 294.5 96.1969Z" fill="#58595B"/>
<path id="Vector_20" d="M294.5 78.4053C290.588 78.4053 287.405 81.5879 287.405 85.4999C287.405 89.4118 290.588 92.5945 294.5 92.5945C298.412 92.5945 301.595 89.4119 301.595 85.4999C301.595 81.5879 298.412 78.4053 294.5 78.4053ZM294.5 90.7422C291.61 90.7422 289.258 88.3905 289.258 85.5C289.258 82.6095 291.61 80.2579 294.5 80.2579C297.39 80.2579 299.742 82.6095 299.742 85.5C299.742 88.3905 297.39 90.7422 294.5 90.7422Z" fill="#58595B"/>
<path id="Vector_21" d="M294.5 81.7333C292.423 81.7333 290.733 83.4231 290.733 85.5C290.733 86.0115 291.148 86.4263 291.66 86.4263C292.171 86.4263 292.586 86.0115 292.586 85.5C292.586 84.4445 293.444 83.5858 294.5 83.5858C295.012 83.5858 295.426 83.1711 295.426 82.6596C295.426 82.1479 295.011 81.7333 294.5 81.7333Z" fill="#58595B"/>
</g>
<path id="Vector_22" d="M279.558 70.5579L309.442 100.442" stroke="#37393C" stroke-width="4"/>
</g>
<path id="Targeting value 2_2" d="M30.125 81.625C29.6417 80.6083 28.9417 79.825 28.025 79.275C27.1083 78.7083 26.0417 78.425 24.825 78.425C23.6083 78.425 22.5083 78.7083 21.525 79.275C20.5583 79.825 19.7917 80.625 19.225 81.675C18.675 82.7083 18.4 83.9083 18.4 85.275C18.4 86.6417 18.675 87.8417 19.225 88.875C19.7917 89.9083 20.5583 90.7083 21.525 91.275C22.5083 91.825 23.6083 92.1 24.825 92.1C26.525 92.1 27.925 91.5917 29.025 90.575C30.125 89.5583 30.7667 88.1833 30.95 86.45H24V84.6H33.375V86.35C33.2417 87.7833 32.7917 89.1 32.025 90.3C31.2583 91.4833 30.25 92.425 29 93.125C27.75 93.8083 26.3583 94.15 24.825 94.15C23.2083 94.15 21.7333 93.775 20.4 93.025C19.0667 92.2583 18.0083 91.2 17.225 89.85C16.4583 88.5 16.075 86.975 16.075 85.275C16.075 83.575 16.4583 82.05 17.225 80.7C18.0083 79.3333 19.0667 78.275 20.4 77.525C21.7333 76.7583 23.2083 76.375 24.825 76.375C26.675 76.375 28.3083 76.8333 29.725 77.75C31.1583 78.6667 32.2 79.9583 32.85 81.625H30.125ZM38.658 78.425V84.25H45.008V86.125H38.658V92.125H45.758V94H36.383V76.55H45.758V78.425H38.658ZM62.9004 94H60.6254L51.4754 80.125V94H49.2004V76.55H51.4754L60.6254 90.4V76.55H62.9004V94ZM72.2035 76.575C74.1035 76.575 75.7452 76.9333 77.1285 77.65C78.5285 78.35 79.5952 79.3583 80.3285 80.675C81.0785 81.9917 81.4535 83.5417 81.4535 85.325C81.4535 87.1083 81.0785 88.6583 80.3285 89.975C79.5952 91.275 78.5285 92.275 77.1285 92.975C75.7452 93.6583 74.1035 94 72.2035 94H66.7785V76.575H72.2035ZM72.2035 92.125C74.4535 92.125 76.1702 91.5333 77.3535 90.35C78.5368 89.15 79.1285 87.475 79.1285 85.325C79.1285 83.1583 78.5285 81.4667 77.3285 80.25C76.1452 79.0333 74.4368 78.425 72.2035 78.425H69.0535V92.125H72.2035ZM86.7293 78.425V84.25H93.0793V86.125H86.7293V92.125H93.8293V94H84.4543V76.55H93.8293V78.425H86.7293ZM106.447 94L102.297 86.875H99.5467V94H97.2717V76.575H102.897C104.213 76.575 105.322 76.8 106.222 77.25C107.138 77.7 107.822 78.3083 108.272 79.075C108.722 79.8417 108.947 80.7167 108.947 81.7C108.947 82.9 108.597 83.9583 107.897 84.875C107.213 85.7917 106.18 86.4 104.797 86.7L109.172 94H106.447ZM99.5467 85.05H102.897C104.13 85.05 105.055 84.75 105.672 84.15C106.288 83.5333 106.597 82.7167 106.597 81.7C106.597 80.6667 106.288 79.8667 105.672 79.3C105.072 78.7333 104.147 78.45 102.897 78.45H99.5467V85.05Z" fill="url(#paint8_linear_3_4805)" fill-opacity="0.25"/>
</g>
<g id="Trait 1" filter="url(#filter6_di_3_4805)">
<g id="Rectangle 45_2" filter="url(#filter7_bi_3_4805)">
<rect x="4" y="3" width="318" height="44" rx="15" fill="url(#paint9_linear_3_4805)" fill-opacity="0.25"/>
<rect x="5.5" y="4.5" width="315" height="41" rx="13.5" stroke="url(#paint10_linear_3_4805)" stroke-width="3"/>
</g>
<path id="Targeting value 1_2" d="M30.625 34H28.35L19.2 20.125V34H16.925V16.55H19.2L28.35 30.4V16.55H30.625V34ZM44.8031 30.125H37.2031L35.8031 34H33.4031L39.7031 16.675H42.3281L48.6031 34H46.2031L44.8031 30.125ZM44.1531 28.275L41.0031 19.475L37.8531 28.275H44.1531ZM69.0238 16.7V34H66.7488V21.1L60.9988 34H59.3988L53.6238 21.075V34H51.3488V16.7H53.7988L60.1988 31L66.5988 16.7H69.0238ZM75.157 18.425V24.25H81.507V26.125H75.157V32.125H82.257V34H72.882V16.55H82.257V18.425H75.157Z" fill="url(#paint11_linear_3_4805)" fill-opacity="0.25"/>
<g id="eye - yes 2" clip-path="url(#clip3_3_4805)">
<path id="Vector_23" d="M313.874 23.4993C310.339 32.1793 302.101 38.2645 292.5 38.2645C282.899 38.2645 274.661 32.1793 271.126 23.4993C274.661 14.8209 282.901 8.73566 292.5 8.73566C302.099 8.73566 310.339 14.8209 313.874 23.4993Z" fill="white"/>
<path id="Vector_24" d="M292.5 31.3356C296.643 31.3356 300.002 27.8275 300.002 23.5001C300.002 19.1727 296.643 15.6646 292.5 15.6646C288.357 15.6646 284.998 19.1727 284.998 23.5001C284.998 27.8275 288.357 31.3356 292.5 31.3356Z" fill="#80D0E1"/>
<g id="Group_3">
<path id="Vector_25" d="M314.91 23.0387C311.081 13.6352 302.284 7.5589 292.5 7.5589C282.716 7.5589 273.919 13.635 270.09 23.0387C269.97 23.333 269.97 23.6654 270.09 23.9597C273.919 33.3643 282.716 39.4411 292.5 39.4411C302.285 39.4411 311.081 33.3643 314.91 23.9597C315.03 23.6654 315.03 23.333 314.91 23.0387ZM292.5 37.0879C283.782 37.0879 275.928 31.771 272.356 23.4993C275.928 15.2286 283.782 9.91211 292.5 9.91211C301.218 9.91211 309.072 15.2286 312.644 23.4992C309.072 31.7707 301.218 37.0879 292.5 37.0879Z" fill="#58595B"/>
<path id="Vector_26" d="M292.5 14.4878C287.742 14.4878 283.871 18.5306 283.871 23.4999C283.871 28.4691 287.742 32.5119 292.5 32.5119C297.258 32.5119 301.129 28.4692 301.129 23.4999C301.129 18.5305 297.258 14.4878 292.5 14.4878ZM292.5 30.159C288.985 30.159 286.124 27.1717 286.124 23.5C286.124 19.8284 288.985 16.8411 292.5 16.8411C296.015 16.8411 298.876 19.8284 298.876 23.5C298.876 27.1717 296.015 30.159 292.5 30.159Z" fill="#58595B"/>
<path id="Vector_27" d="M292.5 18.7153C289.974 18.7153 287.919 20.8617 287.919 23.5001C287.919 24.1498 288.423 24.6766 289.045 24.6766C289.668 24.6766 290.172 24.1498 290.172 23.5001C290.172 22.1593 291.216 21.0685 292.5 21.0685C293.122 21.0685 293.627 20.5416 293.627 19.8919C293.627 19.242 293.122 18.7153 292.5 18.7153Z" fill="#58595B"/>
</g>
</g>
</g>
</g>
<defs>
<filter id="filter0_di_3_4805" x="0" y="183" width="326" height="52" filterUnits="userSpaceOnUse" color-interpolation-filters="sRGB">
<feFlood flood-opacity="0" result="BackgroundImageFix"/>
<feColorMatrix in="SourceAlpha" type="matrix" values="0 0 0 0 0 0 0 0 0 0 0 0 0 0 0 0 0 0 127 0" result="hardAlpha"/>
<feOffset dy="4"/>
<feGaussianBlur stdDeviation="2"/>
<feComposite in2="hardAlpha" operator="out"/>
<feColorMatrix type="matrix" values="0 0 0 0 0 0 0 0 0 0 0 0 0 0 0 0 0 0 0.3 0"/>
<feBlend mode="normal" in2="BackgroundImageFix" result="effect1_dropShadow_3_4805"/>
<feBlend mode="normal" in="SourceGraphic" in2="effect1_dropShadow_3_4805" result="shape"/>
<feColorMatrix in="SourceAlpha" type="matrix" values="0 0 0 0 0 0 0 0 0 0 0 0 0 0 0 0 0 0 127 0" result="hardAlpha"/>
<feOffset dy="4"/>
<feGaussianBlur stdDeviation="2"/>
<feComposite in2="hardAlpha" operator="arithmetic" k2="-1" k3="1"/>
<feColorMatrix type="matrix" values="0 0 0 0 0 0 0 0 0 0 0 0 0 0 0 0 0 0 0.7 0"/>
<feBlend mode="normal" in2="shape" result="effect2_innerShadow_3_4805"/>
</filter>
<filter id="filter1_bi_3_4805" x="-21" y="158" width="368" height="94" filterUnits="userSpaceOnUse" color-interpolation-filters="sRGB">
<feFlood flood-opacity="0" result="BackgroundImageFix"/>
<feGaussianBlur in="BackgroundImageFix" stdDeviation="12.5"/>
<feComposite in2="SourceAlpha" operator="in" result="effect1_backgroundBlur_3_4805"/>
<feBlend mode="normal" in="SourceGraphic" in2="effect1_backgroundBlur_3_4805" result="shape"/>
<feColorMatrix in="SourceAlpha" type="matrix" values="0 0 0 0 0 0 0 0 0 0 0 0 0 0 0 0 0 0 127 0" result="hardAlpha"/>
<feOffset dy="2"/>
<feGaussianBlur stdDeviation="2"/>
<feComposite in2="hardAlpha" operator="arithmetic" k2="-1" k3="1"/>
<feColorMatrix type="matrix" values="0 0 0 0 1 0 0 0 0 1 0 0 0 0 1 0 0 0 1 0"/>
<feBlend mode="normal" in2="shape" result="effect2_innerShadow_3_4805"/>
</filter>
<filter id="filter2_di_3_4805" x="0" y="120" width="326" height="55" filterUnits="userSpaceOnUse" color-interpolation-filters="sRGB">
<feFlood flood-opacity="0" result="BackgroundImageFix"/>
<feColorMatrix in="SourceAlpha" type="matrix" values="0 0 0 0 0 0 0 0 0 0 0 0 0 0 0 0 0 0 127 0" result="hardAlpha"/>
<feOffset dy="4"/>
<feGaussianBlur stdDeviation="2"/>
<feComposite in2="hardAlpha" operator="out"/>
<feColorMatrix type="matrix" values="0 0 0 0 0 0 0 0 0 0 0 0 0 0 0 0 0 0 0.3 0"/>
<feBlend mode="normal" in2="BackgroundImageFix" result="effect1_dropShadow_3_4805"/>
<feBlend mode="normal" in="SourceGraphic" in2="effect1_dropShadow_3_4805" result="shape"/>
<feColorMatrix in="SourceAlpha" type="matrix" values="0 0 0 0 0 0 0 0 0 0 0 0 0 0 0 0 0 0 127 0" result="hardAlpha"/>
<feOffset dy="4"/>
<feGaussianBlur stdDeviation="2"/>
<feComposite in2="hardAlpha" operator="arithmetic" k2="-1" k3="1"/>
<feColorMatrix type="matrix" values="0 0 0 0 0 0 0 0 0 0 0 0 0 0 0 0 0 0 0.7 0"/>
<feBlend mode="normal" in2="shape" result="effect2_innerShadow_3_4805"/>
</filter>
<filter id="filter3_bi_3_4805" x="-21" y="98" width="368" height="94" filterUnits="userSpaceOnUse" color-interpolation-filters="sRGB">
<feFlood flood-opacity="0" result="BackgroundImageFix"/>
<feGaussianBlur in="BackgroundImageFix" stdDeviation="12.5"/>
<feComposite in2="SourceAlpha" operator="in" result="effect1_backgroundBlur_3_4805"/>
<feBlend mode="normal" in="SourceGraphic" in2="effect1_backgroundBlur_3_4805" result="shape"/>
<feColorMatrix in="SourceAlpha" type="matrix" values="0 0 0 0 0 0 0 0 0 0 0 0 0 0 0 0 0 0 127 0" result="hardAlpha"/>
<feOffset dy="2"/>
<feGaussianBlur stdDeviation="2"/>
<feComposite in2="hardAlpha" operator="arithmetic" k2="-1" k3="1"/>
<feColorMatrix type="matrix" values="0 0 0 0 1 0 0 0 0 1 0 0 0 0 1 0 0 0 1 0"/>
<feBlend mode="normal" in2="shape" result="effect2_innerShadow_3_4805"/>
</filter>
<filter id="filter4_di_3_4805" x="0" y="63" width="326" height="52" filterUnits="userSpaceOnUse" color-interpolation-filters="sRGB">
<feFlood flood-opacity="0" result="BackgroundImageFix"/>
<feColorMatrix in="SourceAlpha" type="matrix" values="0 0 0 0 0 0 0 0 0 0 0 0 0 0 0 0 0 0 127 0" result="hardAlpha"/>
<feOffset dy="4"/>
<feGaussianBlur stdDeviation="2"/>
<feComposite in2="hardAlpha" operator="out"/>
<feColorMatrix type="matrix" values="0 0 0 0 0 0 0 0 0 0 0 0 0 0 0 0 0 0 0.3 0"/>
<feBlend mode="normal" in2="BackgroundImageFix" result="effect1_dropShadow_3_4805"/>
<feBlend mode="normal" in="SourceGraphic" in2="effect1_dropShadow_3_4805" result="shape"/>
<feColorMatrix in="SourceAlpha" type="matrix" values="0 0 0 0 0 0 0 0 0 0 0 0 0 0 0 0 0 0 127 0" result="hardAlpha"/>
<feOffset dy="4"/>
<feGaussianBlur stdDeviation="2"/>
<feComposite in2="hardAlpha" operator="arithmetic" k2="-1" k3="1"/>
<feColorMatrix type="matrix" values="0 0 0 0 0 0 0 0 0 0 0 0 0 0 0 0 0 0 0.7 0"/>
<feBlend mode="normal" in2="shape" result="effect2_innerShadow_3_4805"/>
</filter>
<filter id="filter5_bi_3_4805" x="-21" y="38" width="368" height="94" filterUnits="userSpaceOnUse" color-interpolation-filters="sRGB">
<feFlood flood-opacity="0" result="BackgroundImageFix"/>
<feGaussianBlur in="BackgroundImageFix" stdDeviation="12.5"/>
<feComposite in2="SourceAlpha" operator="in" result="effect1_backgroundBlur_3_4805"/>
<feBlend mode="normal" in="SourceGraphic" in2="effect1_backgroundBlur_3_4805" result="shape"/>
<feColorMatrix in="SourceAlpha" type="matrix" values="0 0 0 0 0 0 0 0 0 0 0 0 0 0 0 0 0 0 127 0" result="hardAlpha"/>
<feOffset dy="2"/>
<feGaussianBlur stdDeviation="2"/>
<feComposite in2="hardAlpha" operator="arithmetic" k2="-1" k3="1"/>
<feColorMatrix type="matrix" values="0 0 0 0 1 0 0 0 0 1 0 0 0 0 1 0 0 0 1 0"/>
<feBlend mode="normal" in2="shape" result="effect2_innerShadow_3_4805"/>
</filter>
<filter id="filter6_di_3_4805" x="0" y="0" width="326" height="55" filterUnits="userSpaceOnUse" color-interpolation-filters="sRGB">
<feFlood flood-opacity="0" result="BackgroundImageFix"/>
<feColorMatrix in="SourceAlpha" type="matrix" values="0 0 0 0 0 0 0 0 0 0 0 0 0 0 0 0 0 0 127 0" result="hardAlpha"/>
<feOffset dy="4"/>
<feGaussianBlur stdDeviation="2"/>
<feComposite in2="hardAlpha" operator="out"/>
<feColorMatrix type="matrix" values="0 0 0 0 0 0 0 0 0 0 0 0 0 0 0 0 0 0 0.3 0"/>
<feBlend mode="normal" in2="BackgroundImageFix" result="effect1_dropShadow_3_4805"/>
<feBlend mode="normal" in="SourceGraphic" in2="effect1_dropShadow_3_4805" result="shape"/>
<feColorMatrix in="SourceAlpha" type="matrix" values="0 0 0 0 0 0 0 0 0 0 0 0 0 0 0 0 0 0 127 0" result="hardAlpha"/>
<feOffset dy="4"/>
<feGaussianBlur stdDeviation="2"/>
<feComposite in2="hardAlpha" operator="arithmetic" k2="-1" k3="1"/>
<feColorMatrix type="matrix" values="0 0 0 0 0 0 0 0 0 0 0 0 0 0 0 0 0 0 0.7 0"/>
<feBlend mode="normal" in2="shape" result="effect2_innerShadow_3_4805"/>
</filter>
<filter id="filter7_bi_3_4805" x="-21" y="-22" width="368" height="94" filterUnits="userSpaceOnUse" color-interpolation-filters="sRGB">
<feFlood flood-opacity="0" result="BackgroundImageFix"/>
<feGaussianBlur in="BackgroundImageFix" stdDeviation="12.5"/>
<feComposite in2="SourceAlpha" operator="in" result="effect1_backgroundBlur_3_4805"/>
<feBlend mode="normal" in="SourceGraphic" in2="effect1_backgroundBlur_3_4805" result="shape"/>
<feColorMatrix in="SourceAlpha" type="matrix" values="0 0 0 0 0 0 0 0 0 0 0 0 0 0 0 0 0 0 127 0" result="hardAlpha"/>
<feOffset dy="2"/>
<feGaussianBlur stdDeviation="2"/>
<feComposite in2="hardAlpha" operator="arithmetic" k2="-1" k3="1"/>
<feColorMatrix type="matrix" values="0 0 0 0 1 0 0 0 0 1 0 0 0 0 1 0 0 0 1 0"/>
<feBlend mode="normal" in2="shape" result="effect2_innerShadow_3_4805"/>
</filter>
<linearGradient id="paint0_linear_3_4805" x1="0.191607" y1="183" x2="-27.388" y2="274.156" gradientUnits="userSpaceOnUse">
<stop stop-color="white"/>
<stop offset="1" stop-color="#A6A3CE"/>
</linearGradient>
<linearGradient id="paint1_linear_3_4805" x1="163" y1="183" x2="163" y2="227" gradientUnits="userSpaceOnUse">
<stop stop-color="white"/>
<stop offset="1" stop-color="white" stop-opacity="0.5"/>
<stop offset="1" stop-color="#D4D4D4"/>
</linearGradient>
<linearGradient id="paint2_linear_3_4805" x1="12.3533" y1="180" x2="-32.585" y2="270.837" gradientUnits="userSpaceOnUse">
<stop stop-color="white"/>
<stop offset="1" stop-color="#A6A3CE"/>
</linearGradient>
<linearGradient id="paint3_linear_3_4805" x1="0.191607" y1="123" x2="-27.388" y2="214.156" gradientUnits="userSpaceOnUse">
<stop stop-color="white"/>
<stop offset="1" stop-color="#A6A3CE"/>
</linearGradient>
<linearGradient id="paint4_linear_3_4805" x1="163" y1="123" x2="163" y2="167" gradientUnits="userSpaceOnUse">
<stop stop-color="white"/>
<stop offset="1" stop-color="white" stop-opacity="0.5"/>
<stop offset="1" stop-color="#D4D4D4"/>
</linearGradient>
<linearGradient id="paint5_linear_3_4805" x1="12.3533" y1="120" x2="-32.585" y2="210.837" gradientUnits="userSpaceOnUse">
<stop stop-color="white"/>
<stop offset="1" stop-color="#A6A3CE"/>
</linearGradient>
<linearGradient id="paint6_linear_3_4805" x1="0.191607" y1="63" x2="-27.388" y2="154.156" gradientUnits="userSpaceOnUse">
<stop stop-color="white"/>
<stop offset="1" stop-color="#A6A3CE"/>
</linearGradient>
<linearGradient id="paint7_linear_3_4805" x1="163" y1="63" x2="163" y2="107" gradientUnits="userSpaceOnUse">
<stop stop-color="white"/>
<stop offset="1" stop-color="white" stop-opacity="0.5"/>
<stop offset="1" stop-color="#D4D4D4"/>
</linearGradient>
<linearGradient id="paint8_linear_3_4805" x1="12.3533" y1="60" x2="-32.585" y2="150.837" gradientUnits="userSpaceOnUse">
<stop stop-color="white"/>
<stop offset="1" stop-color="#A6A3CE"/>
</linearGradient>
<linearGradient id="paint9_linear_3_4805" x1="0.191607" y1="3" x2="-27.388" y2="94.1557" gradientUnits="userSpaceOnUse">
<stop stop-color="white"/>
<stop offset="1" stop-color="#A6A3CE"/>
</linearGradient>
<linearGradient id="paint10_linear_3_4805" x1="163" y1="3" x2="163" y2="47" gradientUnits="userSpaceOnUse">
<stop stop-color="white"/>
<stop offset="1" stop-color="white" stop-opacity="0.5"/>
<stop offset="1" stop-color="#D4D4D4"/>
</linearGradient>
<linearGradient id="paint11_linear_3_4805" x1="12.3533" y1="3.10058e-06" x2="-32.585" y2="90.8365" gradientUnits="userSpaceOnUse">
<stop stop-color="white"/>
<stop offset="1" stop-color="#A6A3CE"/>
</linearGradient>
<clipPath id="clip0_3_4805">
<rect width="29" height="29" fill="white" transform="translate(281 192)"/>
</clipPath>
<clipPath id="clip1_3_4805">
<rect width="45" height="47" fill="white" transform="translate(273 120)"/>
</clipPath>
<clipPath id="clip2_3_4805">
<rect width="37" height="37" fill="white" transform="translate(276 67)"/>
</clipPath>
<clipPath id="clip3_3_4805">
<rect width="45" height="47" fill="white" transform="translate(270)"/>
</clipPath>
</defs>
</svg>
