<svg width="37" height="37" viewBox="0 0 37 37" fill="none" xmlns="http://www.w3.org/2000/svg">
<g id="eye - private 1" clip-path="url(#clip0_3_4833)">
<path id="Vector" d="M36.0738 18.4994C33.1679 25.3326 26.394 30.1231 18.5 30.1231C10.606 30.1231 3.83209 25.3326 0.926147 18.4994C3.83209 11.6675 10.6072 6.87701 18.5 6.87701C26.3928 6.87701 33.1679 11.6675 36.0738 18.4994Z" fill="white"/>
<path id="Vector_2" d="M18.5 24.6684C21.9067 24.6684 24.6684 21.9067 24.6684 18.5C24.6684 15.0933 21.9067 12.3317 18.5 12.3317C15.0933 12.3317 12.3316 15.0933 12.3316 18.5C12.3316 21.9067 15.0933 24.6684 18.5 24.6684Z" fill="white"/>
<g id="Group">
<path id="Vector_3" d="M36.9261 18.1368C33.7775 10.7341 26.5447 5.95062 18.5 5.95062C10.4553 5.95062 3.22261 10.734 0.0739277 18.1368C-0.0246426 18.3685 -0.0246426 18.6302 0.0739277 18.8619C3.2224 26.2655 10.4552 31.0493 18.5 31.0493C26.545 31.0493 33.7777 26.2655 36.9261 18.8619C37.0246 18.6302 37.0246 18.3685 36.9261 18.1368ZM18.5 29.1969C11.3317 29.1969 4.87381 25.0112 1.93737 18.4995C4.87388 11.9885 11.3319 7.80315 18.5 7.80315C25.6682 7.80315 32.1262 11.9885 35.0626 18.4993C32.1262 25.011 25.6683 29.1969 18.5 29.1969Z" fill="#58595B"/>
<path id="Vector_4" d="M18.5 11.4053C14.588 11.4053 11.4054 14.5879 11.4054 18.4999C11.4054 22.4118 14.588 25.5945 18.5 25.5945C22.412 25.5945 25.5946 22.4119 25.5946 18.4999C25.5946 14.5879 22.412 11.4053 18.5 11.4053ZM18.5 23.7422C15.6095 23.7422 13.2579 21.3905 13.2579 18.5C13.2579 15.6095 15.6095 13.2579 18.5 13.2579C21.3905 13.2579 23.7421 15.6095 23.7421 18.5C23.7421 21.3905 21.3905 23.7422 18.5 23.7422Z" fill="#58595B"/>
<path id="Vector_5" d="M18.5 14.7333C16.4231 14.7333 14.7333 16.4231 14.7333 18.5C14.7333 19.0115 15.1479 19.4263 15.6595 19.4263C16.1711 19.4263 16.5857 19.0115 16.5857 18.5C16.5857 17.4445 17.4444 16.5858 18.5 16.5858C19.0116 16.5858 19.4262 16.1711 19.4262 15.6596C19.4262 15.1479 19.0115 14.7333 18.5 14.7333Z" fill="#58595B"/>
</g>
<path id="Vector_6" d="M3.55786 3.55792L33.4421 33.4422" stroke="#37393C" stroke-width="4"/>
</g>
<defs>
<clipPath id="clip0_3_4833">
<rect width="37" height="37" fill="white"/>
</clipPath>
</defs>
</svg>
