<svg width="45" height="47" viewBox="0 0 45 47" fill="none" xmlns="http://www.w3.org/2000/svg">
<g id="eye - yes 2" clip-path="url(#clip0_3_4845)">
<path id="Vector" d="M43.8736 23.4993C40.3393 32.1793 32.1008 38.2645 22.5 38.2645C12.8992 38.2645 4.66066 32.1793 1.1264 23.4993C4.66066 14.8209 12.9007 8.73566 22.5 8.73566C32.0993 8.73566 40.3393 14.8209 43.8736 23.4993Z" fill="white"/>
<path id="Vector_2" d="M22.5 31.3356C26.6433 31.3356 30.0021 27.8275 30.0021 23.5001C30.0021 19.1727 26.6433 15.6646 22.5 15.6646C18.3567 15.6646 14.9979 19.1727 14.9979 23.5001C14.9979 27.8275 18.3567 31.3356 22.5 31.3356Z" fill="#80D0E1"/>
<g id="Group">
<path id="Vector_3" d="M44.9101 23.0387C41.0808 13.6352 32.2841 7.5589 22.5 7.5589C12.7159 7.5589 3.91939 13.635 0.0899121 23.0387C-0.0299707 23.333 -0.0299707 23.6654 0.0899121 23.9597C3.91913 33.3643 12.7158 39.4411 22.5 39.4411C32.2845 39.4411 41.081 33.3643 44.9101 23.9597C45.03 23.6654 45.03 23.333 44.9101 23.0387ZM22.5 37.0879C13.7818 37.0879 5.92761 31.771 2.35626 23.4993C5.9277 15.2286 13.782 9.91211 22.5 9.91211C31.2181 9.91211 39.0724 15.2286 42.6437 23.4992C39.0724 31.7707 31.2182 37.0879 22.5 37.0879Z" fill="#58595B"/>
<path id="Vector_4" d="M22.5 14.4878C17.7421 14.4878 13.8714 18.5306 13.8714 23.4999C13.8714 28.4691 17.7422 32.5119 22.5 32.5119C27.2578 32.5119 31.1285 28.4692 31.1285 23.4999C31.1285 18.5305 27.2578 14.4878 22.5 14.4878ZM22.5 30.159C18.9845 30.159 16.1244 27.1717 16.1244 23.5C16.1244 19.8284 18.9845 16.8411 22.5 16.8411C26.0154 16.8411 28.8756 19.8284 28.8756 23.5C28.8756 27.1717 26.0154 30.159 22.5 30.159Z" fill="#58595B"/>
<path id="Vector_5" d="M22.5 18.7153C19.9741 18.7153 17.9189 20.8617 17.9189 23.5001C17.9189 24.1498 18.4231 24.6766 19.0454 24.6766C19.6676 24.6766 20.1719 24.1498 20.1719 23.5001C20.1719 22.1593 21.2162 21.0685 22.5 21.0685C23.1223 21.0685 23.6265 20.5416 23.6265 19.8919C23.6265 19.242 23.1221 18.7153 22.5 18.7153Z" fill="#58595B"/>
</g>
</g>
<defs>
<clipPath id="clip0_3_4845">
<rect width="45" height="47" fill="white"/>
</clipPath>
</defs>
</svg>
