<svg width="47" height="45" viewBox="0 0 47 45" fill="none" xmlns="http://www.w3.org/2000/svg">
<g id="star empty">
<path id="Rectangle 18" d="M23.5288 24.8317L23.5269 24.8328L23.5283 24.8352L23.5301 24.8342L23.5288 24.8317Z" fill="#808080"/>
<path id="Rectangle 19" d="M23.5306 24.8322H23.5286V24.8342H23.5306V24.8322Z" fill="#808080"/>
<path id="Path 73" d="M23.5292 24.8322L47 17.1112L31.2153 14.1713L23.5292 24.8304V24.8322Z" fill="#C8C8C8"/>
<path id="Path 85" d="M23.5292 24.8322L47 17.1112L31.2153 14.1713L23.5292 24.8304V24.8322Z" fill="#C8C8C8"/>
<path id="Rectangle 20" d="M23.5306 24.8333H23.5286V24.8353H23.5306V24.8333Z" fill="#808080"/>
<path id="Path 75" d="M36.0445 28.8483L47 17.1129L23.5292 24.8339L36.0445 28.8483Z" fill="#A5A5A5"/>
<path id="Path 77" d="M11.0442 28.9387L9.07477 44.8739L23.5258 24.8345L11.0442 28.9387Z" fill="#C8C8C8"/>
<path id="Path 78" d="M23.5257 24.8339L9.07477 44.8739L23.5767 37.9752L23.5292 24.8339H23.5257Z" fill="#8D8D8D"/>
<path id="Path 79" d="M31.2153 14.173L23.4405 0.12085L23.5292 24.8321L31.2153 14.173Z" fill="#8E8E8E"/>
<path id="Path 80" d="M23.5292 24.8339L38.1243 44.771L36.0462 28.8483L23.5292 24.8339Z" fill="#8D8D8D"/>
<path id="Path 81" d="M23.5292 24.8339L23.5767 37.9752L38.1243 44.771L23.5309 24.8339H23.5292Z" fill="#A5A5A5"/>
<path id="Path 82" d="M23.5292 24.8322L23.4405 0.12146L15.7641 14.2268L23.5286 24.8322H23.5292Z" fill="#C8C8C8"/>
<path id="Path 83" d="M15.7641 14.2268L0 17.28L23.5292 24.8327L15.7641 14.2268Z" fill="#A5A5A5"/>
<path id="Path 84" d="M23.5292 24.8322L0 17.2794L11.0431 28.9376L23.5246 24.8333L23.5292 24.8322Z" fill="#8D8D8D"/>
</g>
</svg>
