<svg width="29" height="29" viewBox="0 0 29 29" fill="none" xmlns="http://www.w3.org/2000/svg">
<g id="tvorba ukolu - target - static 2" clip-path="url(#clip0_3_4809)">
<path id="Vector" d="M29 19.8587C29 21.2514 27.871 22.3805 26.4782 22.3805H2.52175C1.12902 22.3804 0 21.2514 0 19.8587C0 18.466 1.12902 17.337 2.52175 17.337H26.4783C27.8709 17.337 29 18.466 29 19.8587Z" fill="#DBD8D2"/>
<path id="Vector_2" d="M9.77175 7.25001C9.77175 8.46863 8.78388 9.45655 7.5652 9.45655C6.34652 9.45655 5.3587 8.46863 5.3587 7.25001C5.3587 6.03138 6.34657 5.04346 7.56525 5.04346C8.78393 5.04346 9.77175 6.03138 9.77175 7.25001ZM21.4348 5.04346C20.2162 5.04346 19.2282 6.03133 19.2282 7.25001C19.2282 8.46869 20.2161 9.45655 21.4348 9.45655C22.6534 9.45655 23.6413 8.46869 23.6413 7.25001C23.6413 6.03133 22.6534 5.04346 21.4348 5.04346Z" fill="#B2D1D8"/>
<path id="Vector_3" d="M11.3479 15.0319V19.051H3.78265V15.0319C3.78265 12.9428 5.47621 11.2493 7.56528 11.2493C9.6543 11.2493 11.3479 12.9428 11.3479 15.0319ZM7.25002 5.67392C6.55363 5.67392 5.98915 6.2384 5.98915 6.9348C5.98915 7.63119 6.55363 8.19567 7.25002 8.19567C7.94642 8.19567 8.5109 7.63119 8.5109 6.9348C8.5109 6.2384 7.94642 5.67392 7.25002 5.67392ZM21.4348 11.2493C19.3457 11.2493 17.6522 12.9429 17.6522 15.032V19.051H25.2174V15.032C25.2174 12.9428 23.5239 11.2493 21.4348 11.2493ZM21.1196 5.67392C20.4232 5.67392 19.8587 6.2384 19.8587 6.9348C19.8587 7.63119 20.4232 8.19567 21.1196 8.19567C21.816 8.19567 22.3805 7.63119 22.3805 6.9348C22.3805 6.2384 21.816 5.67392 21.1196 5.67392Z" fill="#CFDFE2"/>
<path id="Vector_4" d="M11.3055 14.4644C11.3334 14.6495 11.3479 14.839 11.3479 15.032V19.5435H3.78265V16.2299C4.30307 17.0268 5.20275 17.5537 6.22556 17.5537C7.83586 17.5537 9.14131 16.2482 9.14131 14.6379C9.14131 13.2976 11.1061 13.139 11.3055 14.4644ZM23.0109 14.6379C23.0109 16.2481 21.7054 17.5536 20.0952 17.5536C19.0723 17.5536 18.1727 17.0268 17.6522 16.2299V19.5434H25.2174V15.0318C25.2174 14.8389 25.203 14.6494 25.1751 14.4643C24.9757 13.139 23.0109 13.2976 23.0109 14.6379Z" fill="#B2D1D8"/>
<path id="Vector_5" d="M26.3207 19.8587C26.3207 20.1198 26.1089 20.3315 25.8478 20.3315H3.15216C2.89104 20.3315 2.67932 20.1198 2.67932 19.8587C2.67932 19.5976 2.89104 19.3859 3.15216 19.3859H25.8478C26.1089 19.3859 26.3207 19.5975 26.3207 19.8587Z" fill="#A5A5A5"/>
<path id="Vector_6" d="M17.8276 3.32758C17.8276 5.16534 16.3378 6.65516 14.5 6.65516C12.6622 6.65516 11.1724 5.1654 11.1724 3.32758C11.1724 1.48976 12.6622 0 14.5 0C16.3378 0 17.8276 1.48976 17.8276 3.32758Z" fill="#A384E2"/>
<path id="Vector_7" d="M20.2044 13.9154V20.322H8.79553V13.9154C8.79553 10.9558 11.1947 8.55665 14.1542 8.55665H14.8457C17.8052 8.55665 20.2044 10.9558 20.2044 13.9154ZM14.0247 0.950775C12.9745 0.950775 12.1232 1.80214 12.1232 2.85226C12.1232 3.90237 12.9746 4.75368 14.0247 4.75368C15.0747 4.75368 15.9261 3.90232 15.9261 2.85226C15.9261 1.8022 15.0748 0.950775 14.0247 0.950775Z" fill="#B69CF7"/>
<path id="Vector_8" d="M20.1406 13.4051C20.1826 13.6843 20.2044 13.9701 20.2044 14.2611V20.322H8.79553V16.0678C9.58034 17.2697 10.9371 18.0641 12.4796 18.0641C14.9081 18.0641 16.8768 16.0955 16.8768 13.6669C16.8768 11.6456 19.8398 11.4064 20.1406 13.4051Z" fill="#A384E2"/>
<path id="Vector_9" d="M21.1196 19.8587C21.1196 23.5146 18.1559 26.4783 14.5 26.4783C10.8441 26.4783 7.88043 23.5147 7.88043 19.8587C7.88043 16.2028 10.8441 13.2391 14.5 13.2391C18.1559 13.2391 21.1196 16.2028 21.1196 19.8587Z" fill="#FC8059"/>
<path id="Vector_10" d="M18.9131 19.8587C18.9131 22.296 16.9373 24.2718 14.5 24.2718C12.0628 24.2718 10.087 22.296 10.087 19.8587C10.087 17.4215 12.0628 15.4457 14.5 15.4457C16.9373 15.4457 18.9131 17.4214 18.9131 19.8587Z" fill="white"/>
<path id="Vector_11" d="M15.7609 19.8587C15.7609 20.5551 15.1964 21.1196 14.5 21.1196C13.8036 21.1196 13.2391 20.5551 13.2391 19.8587C13.2391 19.1623 13.8036 18.5978 14.5 18.5978C15.1964 18.5978 15.7609 19.1623 15.7609 19.8587ZM14.9728 28.5272V22.8533C14.9728 22.5921 14.7611 22.3804 14.5 22.3804C14.2389 22.3804 14.0272 22.5921 14.0272 22.8533V28.5272C14.0272 28.7883 14.2389 29 14.5 29C14.7611 29 14.9728 28.7883 14.9728 28.5272ZM14.9728 16.8641V11.1902C14.9728 10.9291 14.7611 10.7174 14.5 10.7174C14.2389 10.7174 14.0272 10.9291 14.0272 11.1902V16.8641C14.0272 17.1252 14.2389 17.337 14.5 17.337C14.7611 17.337 14.9728 17.1252 14.9728 16.8641ZM23.6413 19.8587C23.6413 19.5976 23.4296 19.3859 23.1684 19.3859H17.4946C17.2335 19.3859 17.0217 19.5976 17.0217 19.8587C17.0217 20.1198 17.2335 20.3316 17.4946 20.3316H23.1685C23.4296 20.3316 23.6413 20.1198 23.6413 19.8587ZM11.9782 19.8587C11.9782 19.5976 11.7665 19.3859 11.5054 19.3859H5.83154C5.57043 19.3859 5.3587 19.5976 5.3587 19.8587C5.3587 20.1198 5.57043 20.3316 5.83154 20.3316H11.5054C11.7666 20.3316 11.9782 20.1198 11.9782 19.8587Z" fill="#FC8059"/>
</g>
<defs>
<clipPath id="clip0_3_4809">
<rect width="29" height="29" fill="white"/>
</clipPath>
</defs>
</svg>
